# xmcd
#
# Track frame offsets: 
#        150
#        9428
#        18685
#        28327
#        38549
#        48904
#        59457
#        70279
#        81239
#        92710
#        104438
#        117015
#        129849
#        142458
#        154213
#        165466
#        176817
#        187444
#        197941
#        208537
#        218847
#        229066
#        239238
#        248678
#        257258
#
# Disc length: 3591 seconds
#
# Revision: 2
# Processed by: cddbd v1.5.2PL0 Copyright (c) Steve Scherf et al.
# Submitted via: ExactAudioCopyFreeDBPlugin 1.0
#
DISCID=6f0e0519
DTITLE=Patsy Cline - The Ultimate Collection [CD 2)
DYEAR=2004
DGENRE=Country
TTITLE0=Come on In
TTITLE1=Love, Love, Love Me Honey
TTITLE2=I'm Blue Again
TTITLE3=Too Many Secrets
TTITLE4=Lovesick Blues
TTITLE5=I Don't Wanta
TTITLE6=There He Goes
TTITLE7=Don't Ever Leave Me Again
TTITLE8=Let the Teardrops Fall
TTITLE9=If I Could Only Stay Asleep
TTITLE10=Yes I Understand
TTITLE11=Life's Railway to Heaven
TTITLE12=Just a Closer Walk with Thee
TTITLE13=Today, Tomorrow and Forever
TTITLE14=Crazy Dreams
TTITLE15=The Heart You Break May Be Your Own
TTITLE16=I Can See an Angel
TTITLE17=Gotta Lotta Rhythm in My Soul
TTITLE18=Stop, Look and Listen
TTITLE19=I Love You Honey
TTITLE20=Pick Me Up on Your Way Down
TTITLE21=How Can I Face Tomorrow
TTITLE22=I'm Moving Along
TTITLE23=Ain't No Wheel on This Ship
TTITLE24=Crazy
EXTD=Year: 2004 [CD 2 from 2)
EXTT0=
EXTT1=
EXTT2=
EXTT3=
EXTT4=
EXTT5=
EXTT6=
EXTT7=
EXTT8=
EXTT9=
EXTT10=
EXTT11=
EXTT12=
EXTT13=
EXTT14=
EXTT15=
EXTT16=
EXTT17=
EXTT18=
EXTT19=
EXTT20=
EXTT21=
EXTT22=
EXTT23=
EXTT24=
PLAYORDER=
